<?xml version="1.0" standalone="no"?>
<!DOCTYPE svg PUBLIC "-//W3C//DTD SVG 20010904//EN"
 "http://www.w3.org/TR/2001/REC-SVG-20010904/DTD/svg10.dtd">
<svg version="1.0" xmlns="http://www.w3.org/2000/svg"
 width="600.000000pt" height="600.000000pt" viewBox="0 0 600.000000 600.000000"
 preserveAspectRatio="xMidYMid meet">
<metadata>
Created by potrace 1.11, written by Peter Selinger 2001-2013
</metadata>
<g transform="translate(0.000000,600.000000) scale(0.100000,-0.100000)"
fill="#000000" stroke="none">
<path d="M1170 4205 l0 -75 200 0 200 0 0 -990 0 -990 -200 0 -200 0 0 -75 0
-75 490 0 490 0 0 75 0 75 -180 0 -180 0 0 1013 c1 871 3 1009 15 987 7 -14
254 -468 549 -1010 l535 -985 -195 -3 -194 -2 0 -75 0 -75 515 0 515 0 0 75 0
75 -195 0 -195 0 0 25 c0 21 1053 1960 1081 1990 5 5 9 -417 9 -1003 l0 -1012
-195 0 -195 0 0 -75 0 -75 510 0 510 0 0 75 0 75 -185 0 -185 0 0 990 0 990
185 0 185 0 0 75 0 75 -396 -2 -396 -3 -457 -832 c-251 -457 -460 -835 -464
-839 -4 -4 -7 338 -7 759 l0 767 195 0 195 0 0 75 0 75 -515 0 -515 0 0 -75 0
-75 195 0 195 0 0 -757 -1 -758 -32 56 c-18 31 -225 406 -462 832 l-430 777
-397 0 -398 0 0 -75z"/>
</g>
</svg>
